<svg width="22" height="22" viewBox="0 0 22 22" fill="none" xmlns="http://www.w3.org/2000/svg">
<path fill-rule="evenodd" clip-rule="evenodd" d="M11 19.8C15.8601 19.8 19.8 15.8601 19.8 11C19.8 6.13989 15.8601 2.2 11 2.2C6.13989 2.2 2.2 6.13989 2.2 11C2.2 15.8601 6.13989 19.8 11 19.8ZM11 21C16.5228 21 21 16.5228 21 11C21 5.47715 16.5228 1 11 1C5.47715 1 1 5.47715 1 11C1 16.5228 5.47715 21 11 21Z" fill="#00BC52"/>
<path fill-rule="evenodd" clip-rule="evenodd" d="M15.508 7.42565C15.835 7.6799 15.894 8.15109 15.6397 8.4781L11.0521 14.3788C10.757 14.7583 10.2062 14.8178 9.83687 14.51L7.53775 12.5941C7.21954 12.3289 7.17655 11.856 7.44172 11.5378C7.7069 11.2196 8.17982 11.1766 8.49803 11.4418L10.2806 12.9272L14.4555 7.55741C14.7098 7.2304 15.1809 7.17141 15.508 7.42565Z" fill="#00BC52"/>
</svg>
