<svg width="26" height="26" viewBox="0 0 26 26" fill="none" xmlns="http://www.w3.org/2000/svg">
<path d="M26 13C26 20.1797 20.1797 26 13 26C5.8203 26 0 20.1797 0 13C0 5.8203 5.8203 0 13 0C20.1797 0 26 5.8203 26 13Z" fill="black"/>
<path d="M13.6471 8.97789H17.4923C18.0118 8.97789 18.3788 9.04565 18.5934 9.18117C18.8079 9.31668 18.9378 9.55948 18.983 9.90956C19.0282 10.2483 19.0507 10.7227 19.0507 11.3325V15.0422C19.0507 15.4826 18.9943 15.844 18.8814 16.1263C18.7684 16.3974 18.5708 16.6006 18.2885 16.7361C18.0061 16.8717 17.6052 16.9394 17.0858 16.9394H15.4427V19.6158H13.6471V8.97789ZM15.4427 10.4177V15.4996H16.6284C16.8091 15.4996 16.9446 15.4713 17.035 15.4149C17.1253 15.3584 17.1818 15.2681 17.2043 15.1438C17.2382 15.0196 17.2552 14.8615 17.2552 14.6695V11.2986C17.2552 11.0389 17.2326 10.8469 17.1874 10.7227C17.1535 10.5984 17.0914 10.5194 17.0011 10.4855C16.922 10.4403 16.7922 10.4177 16.6115 10.4177H15.4427Z" fill="white"/>
<path d="M8.77614 16.9394C8.24537 16.9394 7.84447 16.8603 7.57344 16.7022C7.30241 16.5328 7.12172 16.3239 7.03138 16.0755C6.94103 15.827 6.89586 15.5786 6.89586 15.3301V7.47864L5.90909 7.48485L7.87879 5.12121L9.45455 7.48485L8.69144 7.47864V14.5509C8.69144 14.8784 8.7592 15.1212 8.89471 15.2793C9.04152 15.4261 9.27302 15.4995 9.58923 15.4995H10.504V8.97786H12.2995V16.9394H8.77614Z" fill="white"/>
</svg>
