<svg width="156" height="66" viewBox="0 0 156 66" fill="none" xmlns="http://www.w3.org/2000/svg">
<path d="M66 33C66 51.2254 51.2254 66 33 66C14.7746 66 0 51.2254 0 33C0 14.7746 14.7746 0 33 0C51.2254 0 66 14.7746 66 33Z" fill="black"/>
<path d="M34.6426 22.79H44.4036C45.7222 22.79 46.6539 22.962 47.1986 23.306C47.7432 23.65 48.0729 24.2664 48.1876 25.155C48.3022 26.015 48.3596 27.219 48.3596 28.767V38.184C48.3596 39.302 48.2162 40.2194 47.9296 40.936C47.6429 41.624 47.1412 42.14 46.4246 42.484C45.7079 42.828 44.6902 43 43.3716 43H39.2006V49.794H34.6426V22.79ZM39.2006 26.445V39.345H42.2106C42.6692 39.345 43.0132 39.2734 43.2426 39.13C43.4719 38.9867 43.6152 38.7574 43.6726 38.442C43.7586 38.1267 43.8016 37.7254 43.8016 37.238V28.681C43.8016 28.0217 43.7442 27.5344 43.6296 27.219C43.5436 26.9037 43.3859 26.703 43.1566 26.617C42.9559 26.5024 42.6262 26.445 42.1676 26.445H39.2006Z" fill="white"/>
<path d="M22.2779 43C20.9305 43 19.9129 42.7993 19.2249 42.398C18.5369 41.968 18.0782 41.4376 17.8489 40.807C17.6195 40.1763 17.5049 39.5456 17.5049 38.915V18.9842L15 19L20 13L24 19L22.0629 18.9842V36.937C22.0629 37.7683 22.2349 38.3846 22.5789 38.7859C22.9516 39.1586 23.5392 39.345 24.3419 39.345H26.6639V22.79H31.2219V43H22.2779Z" fill="white"/>
<path d="M147.814 24.776C150.481 24.776 152.39 25.2347 153.542 26.152C154.716 27.048 155.302 28.392 155.302 30.184C155.324 31.6347 154.961 32.7227 154.214 33.448C153.468 34.152 152.177 34.504 150.342 34.504H141.51V31.848H149.03C149.756 31.848 150.214 31.6987 150.406 31.4C150.62 31.08 150.726 30.6427 150.726 30.088C150.705 29.3413 150.481 28.8293 150.054 28.552C149.649 28.2533 148.956 28.104 147.974 28.104C147.1 28.104 146.417 28.2213 145.926 28.456C145.436 28.6907 145.094 29.1387 144.902 29.8C144.71 30.4613 144.614 31.4213 144.614 32.68C144.614 34.0027 144.732 35.0267 144.966 35.752C145.201 36.456 145.596 36.9467 146.15 37.224C146.726 37.5013 147.516 37.64 148.518 37.64C149.244 37.64 150.14 37.6187 151.206 37.576C152.294 37.512 153.382 37.416 154.47 37.288L154.918 40.2C154.3 40.4987 153.596 40.7333 152.806 40.904C152.017 41.0747 151.206 41.192 150.374 41.256C149.542 41.3413 148.742 41.384 147.974 41.384C145.969 41.384 144.348 41.096 143.11 40.52C141.894 39.9227 141.009 39.016 140.454 37.8C139.921 36.584 139.654 35.0267 139.654 33.128C139.654 31.0587 139.932 29.416 140.486 28.2C141.041 26.984 141.916 26.1093 143.11 25.576C144.305 25.0427 145.873 24.776 147.814 24.776Z" fill="black"/>
<path d="M130.632 25.192L131.208 28.328L131.656 28.744V41H126.92V25.192H130.632ZM138.344 24.776L137.896 29.16H136.584C135.837 29.16 135.059 29.2667 134.248 29.48C133.437 29.6934 132.413 30.0134 131.176 30.44L130.856 27.784C131.965 26.8027 133.085 26.056 134.216 25.544C135.346 25.032 136.445 24.776 137.512 24.776H138.344Z" fill="black"/>
<path d="M115.565 24.776C117.549 24.776 119.138 25.0534 120.333 25.608C121.527 26.1414 122.381 27.016 122.893 28.232C123.426 29.448 123.693 31.08 123.693 33.128C123.693 35.1334 123.426 36.744 122.893 37.96C122.381 39.176 121.527 40.0507 120.333 40.584C119.138 41.1174 117.549 41.384 115.565 41.384C113.602 41.384 112.013 41.1174 110.797 40.584C109.602 40.0507 108.738 39.176 108.205 37.96C107.671 36.744 107.405 35.1334 107.405 33.128C107.405 31.08 107.671 29.448 108.205 28.232C108.738 27.016 109.602 26.1414 110.797 25.608C112.013 25.0534 113.602 24.776 115.565 24.776ZM115.565 28.232C114.754 28.232 114.114 28.3707 113.645 28.648C113.175 28.9254 112.845 29.416 112.653 30.12C112.461 30.824 112.365 31.8267 112.365 33.128C112.365 34.408 112.461 35.4 112.653 36.104C112.845 36.808 113.175 37.2987 113.645 37.576C114.114 37.832 114.754 37.96 115.565 37.96C116.376 37.96 117.015 37.832 117.485 37.576C117.954 37.2987 118.285 36.808 118.477 36.104C118.669 35.4 118.765 34.408 118.765 33.128C118.765 31.8267 118.669 30.824 118.477 30.12C118.285 29.416 117.954 28.9254 117.485 28.648C117.015 28.3707 116.376 28.232 115.565 28.232Z" fill="black"/>
<path d="M101.097 20.808V35.944C101.097 36.52 101.225 36.936 101.481 37.192C101.758 37.4267 102.206 37.544 102.825 37.544H104.873L105.385 40.744C105.001 40.872 104.531 40.9787 103.977 41.064C103.422 41.1707 102.867 41.2453 102.313 41.288C101.758 41.352 101.289 41.384 100.905 41.384C99.4752 41.384 98.3552 41 97.5446 40.232C96.7552 39.464 96.3606 38.3867 96.3606 37L96.3286 20.808H101.097ZM105.513 25.192V28.296H93.5766V25.352L96.6486 25.192H105.513Z" fill="black"/>
<path d="M83.9366 24.776C84.7046 24.776 85.5366 24.808 86.4326 24.872C87.3286 24.9147 88.2032 24.9787 89.0566 25.064C89.9099 25.1493 90.6672 25.256 91.3286 25.384L91.0086 28.328C89.9846 28.3067 88.9499 28.296 87.9046 28.296C86.8806 28.2747 85.8779 28.264 84.8966 28.264C84.0646 28.2427 83.4246 28.2533 82.9766 28.296C82.5286 28.3387 82.2086 28.4453 82.0166 28.616C81.8459 28.7653 81.7606 29.0426 81.7606 29.448C81.7606 29.9173 81.9206 30.2373 82.2406 30.408C82.5606 30.5573 83.0939 30.728 83.8406 30.92L87.9686 31.912C89.2912 32.2533 90.2726 32.7653 90.9126 33.448C91.5526 34.1093 91.8726 35.112 91.8726 36.456C91.8726 37.7787 91.6272 38.792 91.1366 39.496C90.6459 40.2 89.8672 40.6907 88.8006 40.968C87.7339 41.224 86.3579 41.352 84.6726 41.352C84.0112 41.352 83.0299 41.32 81.7286 41.256C80.4272 41.192 78.9979 41.032 77.4406 40.776L77.7606 37.832C78.1446 37.8533 78.6352 37.8747 79.2326 37.896C79.8299 37.896 80.4806 37.896 81.1846 37.896C81.8886 37.896 82.5926 37.896 83.2966 37.896C84.3846 37.896 85.2166 37.8747 85.7926 37.832C86.3686 37.768 86.7632 37.64 86.9766 37.448C87.1899 37.256 87.2966 36.968 87.2966 36.584C87.2966 36.1147 87.1152 35.7947 86.7526 35.624C86.3899 35.4533 85.8139 35.272 85.0246 35.08L81.0246 34.088C80.0219 33.8107 79.2432 33.4587 78.6886 33.032C78.1339 32.6053 77.7392 32.0827 77.5046 31.464C77.2912 30.8453 77.1846 30.1093 77.1846 29.256C77.1846 28.168 77.3979 27.304 77.8246 26.664C78.2726 26.0027 78.9872 25.5227 79.9686 25.224C80.9712 24.9253 82.2939 24.776 83.9366 24.776Z" fill="black"/>
</svg>
