<svg xmlns="http://www.w3.org/2000/svg" width="128" height="130" fill="none" viewBox="0 0 128 130">
  <path fill="#E9A631" d="M60.536 12.148c-.152-2.305-2.147-4.066-4.436-3.75a58.378 58.378 0 0 0-28.177 12.003A58.29 58.29 0 0 0 8.34 48.954a58.236 58.236 0 0 0 .075 34.613 58.29 58.29 0 0 0 19.707 28.468 58.387 58.387 0 0 0 66.044 4.057 58.307 58.307 0 0 0 23.05-25.842 58.23 58.23 0 0 0 4.906-30.2c-.241-2.299-2.431-3.814-4.707-3.409-2.277.406-3.776 2.582-3.562 4.885a49.882 49.882 0 0 1-4.262 25.263 49.938 49.938 0 0 1-19.741 22.133 50.003 50.003 0 0 1-56.565-3.475 49.921 49.921 0 0 1-16.879-24.382 49.877 49.877 0 0 1-.064-29.644 49.922 49.922 0 0 1 16.773-24.455 49.998 49.998 0 0 1 23.536-10.193c2.285-.344 4.037-2.319 3.885-4.625Z"/>
  <path fill="#E9A631" fill-rule="evenodd" d="m117.313 45.868-2.518 1.385c-.422.232-.915-.143-.835-.634l.48-2.931-2.036-2.075c-.342-.348-.153-.954.318-1.025l2.816-.43 1.259-2.665a.56.56 0 0 1 .516-.336.561.561 0 0 1 .516.336l1.258 2.666 2.816.428c.472.072.661.677.318 1.025l-2.036 2.076.48 2.931c.081.491-.413.867-.834.635l-2.518-1.386Zm-13.386-18.824-3.117 1.714c-.523.287-1.133-.176-1.033-.784l.594-3.629-2.521-2.569c-.423-.43-.189-1.18.394-1.269l3.485-.53 1.559-3.3a.697.697 0 0 1 1.02-.303.694.694 0 0 1 .257.302l1.559 3.3 3.485.53c.584.09.818.839.394 1.269l-2.521 2.57.595 3.629c.099.608-.511 1.072-1.033.785l-3.117-1.715ZM79.44 15.48l-4.24 2.331c-.71.391-1.54-.24-1.404-1.066l.808-4.936-3.429-3.494c-.575-.585-.257-1.606.536-1.726l4.74-.722 2.12-4.489a.95.95 0 0 1 1.738 0l2.12 4.489 4.74.72c.795.122 1.114 1.141.537 1.726l-3.43 3.496.81 4.936c.135.827-.695 1.459-1.406 1.068l-4.24-2.332Z" clip-rule="evenodd"/>
</svg>
