<svg width="14" height="14" viewBox="0 0 14 14" fill="none" xmlns="http://www.w3.org/2000/svg">
<path fill-rule="evenodd" clip-rule="evenodd" d="M6.42215 7.5038C6.60023 7.64456 6.82089 7.72055 7.04788 7.71928C7.27486 7.71801 7.49466 7.63955 7.67115 7.4968L11.3712 4.5028C11.5774 4.33598 11.8414 4.2579 12.1052 4.28575C12.3689 4.3136 12.6108 4.44509 12.7777 4.6513C12.9445 4.8575 13.0225 5.12153 12.9947 5.3853C12.9668 5.64907 12.8354 5.89098 12.6292 6.0578L8.92915 9.0518C8.3995 9.48015 7.73984 9.7155 7.05866 9.71914C6.37748 9.72277 5.71534 9.49447 5.18115 9.0718L1.38015 6.0648C1.27526 5.98403 1.18744 5.88324 1.12181 5.76827C1.05617 5.65331 1.01401 5.52645 0.997779 5.39506C0.981548 5.26368 0.991567 5.13038 1.02725 5.00289C1.06294 4.87541 1.12359 4.75628 1.20567 4.65241C1.28776 4.54855 1.38965 4.46201 1.50544 4.39783C1.62122 4.33365 1.7486 4.2931 1.88019 4.27853C2.01177 4.26397 2.14493 4.27567 2.27195 4.31296C2.39898 4.35026 2.51733 4.41241 2.62015 4.4958L6.42215 7.5038Z" fill="black"/>
</svg>
