<svg width="195" height="151" viewBox="0 0 195 151" fill="none" xmlns="http://www.w3.org/2000/svg">
<path d="M170.452 109.713L172.432 109.986L170.942 120.784L168.96 120.51L170.452 109.713ZM38 45H40V77H38V45ZM38 84H40V93H38V84ZM145.8 126.7C146 127 146.3 127.1 146.6 127.1C146.8 127.1 147 127 147.2 126.9C148.7 125.9 150.8 125.8 152.4 126.8C152.9 127.1 153.5 127 153.8 126.5C154.1 126 154 125.4 153.5 125.1C151.3 123.7 148.3 123.7 146.1 125.2C145.6 125.6 145.5 126.2 145.8 126.7V126.7ZM70 113H79V115H70V113ZM5 144H18V146H5V144Z" fill="#9CA9BC"/>
<path d="M173 144L173.3 143.1L178.3 104H179C181.2 104 183 102.6 183 100.8V99.3C183 97.5 181.2 96.1 179 96.1H144.3L153.4 74.1C154.2 72.1 153.3 69.7 151.2 68.9C150.2 68.5 149.1 68.5 148.1 68.9C147.1 69.3 146.3 70.1 145.9 71.1L136.5 94C135.3 94.4 134.4 95.1 133.6 96H132V37C132 33.7 129.3 31 126.1 31C119.8 31 113.5 30.3 107.2 30.1C103.2 15.4 93.2 5 81.5 5C69.8 5 59.8 15.4 55.8 30C49.4 30.2 43.1 30.5 37 31C33.7 31 31 33.7 31 37V112.9L27.1 144H23V146H190V144H173ZM171.3 142.8C171.2 143.7 170.4 144 169.7 144H135.9L132 112.9V104H134.2C135.3 105 136.5 105.7 138.1 105.7C139.7 105.7 141 105.1 142 104H176.3L171.3 142.8ZM181 99.2V100.7C181 101.3 180.2 101.9 179 101.9H143.9C144.2 101.2 144.4 100.4 144.4 99.6C144.4 99 144.3 98.5 144.2 97.9H179C180.2 98 181 98.7 181 99.2ZM147.8 71.7C148 71.2 148.4 70.8 148.9 70.6C149.4 70.4 149.9 70.4 150.4 70.6C151.4 71 151.9 72.2 151.5 73.2L142.4 95.2C141.3 94.2 140 93.7 138.8 93.5L147.8 71.7ZM138.3 95.7C140.5 95.7 142.3 97.5 142.3 99.7C142.3 101.9 140.5 103.7 138.3 103.7C136.1 103.7 134.3 101.9 134.3 99.7C134.3 97.5 136.1 95.7 138.3 95.7ZM132.6 98C132.4 98.5 132.4 99.1 132.4 99.7C132.4 100.5 132.6 101.3 132.9 102H132V98H132.6V98ZM81.5 7C92.2 7 101.3 16.5 105.1 30C89 29.5 73.2 29.5 57.9 30C61.7 16.5 70.9 7 81.5 7ZM32.8 115H59V113H33V37C33 34.8 34.8 33 37.1 33C43.1 32.6 49.2 32.3 55.4 32.1C54.9 34.4 54.5 36.8 54.3 39.3C52 39.7 50.2 41.7 50.2 44.1C50.2 46.8 52.4 49 55.1 49C57.8 49 60 46.8 60 44.1C60 41.8 58.4 40 56.4 39.4C56.6 36.9 57 34.4 57.6 32.1C73.2 31.6 89.3 31.6 105.8 32.2C106.4 34.5 106.7 37 107 39.5C104.9 40 103.4 41.9 103.4 44.2C103.4 46.9 105.6 49.1 108.3 49.1C111 49.1 113.2 46.9 113.2 44.2C113.2 41.8 111.4 39.8 109.1 39.4C108.9 37 108.5 34.6 108 32.3C114.1 32.5 120.2 32.8 126.3 33.2C128.5 33.2 130.3 35 130.3 37.2V113.2H89V115.2H130.2L133.8 144.2H29.1L32.8 115V115ZM56.1 41.4C57.1 41.8 57.9 42.9 57.9 44C57.9 45.6 56.6 46.9 55 46.9C53.4 46.9 52.1 45.6 52.1 44C52.1 42.7 52.9 41.7 54 41.3C54 42.2 53.9 43.1 53.9 44H55.9C56 43.1 56 42.2 56.1 41.4ZM107 44H109C109 43.1 109 42.2 108.9 41.3C110 41.7 110.8 42.7 110.8 44C110.8 45.6 109.5 46.9 107.9 46.9C106.3 46.9 105 45.6 105 44C105 42.8 105.7 41.8 106.8 41.4C107 42.2 107 43.1 107 44Z" fill="#9CA9BC"/>
<path d="M145.6 120.2C146.705 120.2 147.6 119.305 147.6 118.2C147.6 117.096 146.705 116.2 145.6 116.2C144.496 116.2 143.6 117.096 143.6 118.2C143.6 119.305 144.496 120.2 145.6 120.2Z" fill="#9CA9BC"/>
<path d="M153.6 120.2C154.705 120.2 155.6 119.305 155.6 118.2C155.6 117.096 154.705 116.2 153.6 116.2C152.496 116.2 151.6 117.096 151.6 118.2C151.6 119.305 152.496 120.2 153.6 120.2Z" fill="#9CA9BC"/>
<path d="M86.5999 79.3001C83.7999 77.5001 79.8999 77.5001 77.1999 79.5001C76.6999 79.8001 76.6 80.4001 76.9 80.9001C77.1 81.2001 77.3999 81.3001 77.6999 81.3001C77.8999 81.3001 78.1 81.2001 78.3 81.1001C80.4 79.6001 83.4 79.6001 85.5 81.0001C86 81.3001 86.6 81.2001 86.9 80.7001C87.2 80.2001 86.9999 79.6001 86.5999 79.3001V79.3001Z" fill="#9CA9BC"/>
<path d="M73.7 73.4C75.1912 73.4 76.4 72.1912 76.4 70.7C76.4 69.2088 75.1912 68 73.7 68C72.2088 68 71 69.2088 71 70.7C71 72.1912 72.2088 73.4 73.7 73.4Z" fill="#9CA9BC"/>
<path d="M89.7 73.4C91.1912 73.4 92.4 72.1912 92.4 70.7C92.4 69.2088 91.1912 68 89.7 68C88.2088 68 87 69.2088 87 70.7C87 72.1912 88.2088 73.4 89.7 73.4Z" fill="#9CA9BC"/>
</svg>
