<svg xmlns="http://www.w3.org/2000/svg" width="19" height="18" fill="none" viewBox="0 0 19 18">
  <path fill="#000" fill-rule="evenodd" d="M11.691 3.112a6.727 6.727 0 00-4.356-.23A6.55 6.55 0 003.8 5.36a6.246 6.246 0 00-1.16 4.073 6.29 6.29 0 001.716 3.884 6.614 6.614 0 003.85 1.988 6.71 6.71 0 004.283-.801 6.426 6.426 0 002.814-3.23.625.625 0 011.164.457 7.675 7.675 0 01-3.36 3.859 7.96 7.96 0 01-5.082.952 7.864 7.864 0 01-4.577-2.366A7.54 7.54 0 011.393 9.52a7.496 7.496 0 011.39-4.888 7.8 7.8 0 014.21-2.95 7.977 7.977 0 015.166.272 7.786 7.786 0 013.216 2.41v-2.36a.625.625 0 111.25 0v4.2c0 .345-.28.625-.625.625h-4.308a.625.625 0 110-1.25h3.018a6.513 6.513 0 00-3.019-2.466z" clip-rule="evenodd"/>
</svg>