<svg xmlns="http://www.w3.org/2000/svg" xmlns:xlink="http://www.w3.org/1999/xlink">
	<style xmlns="http://www.w3.org/2000/svg">:root&gt;svg{display:none}:root&gt;svg:target{display:block}</style>
	<symbol id="icon-am-login"  xmlns="http://www.w3.org/2000/svg" fill="currentColor" viewBox="0 0 16 16">
		<path fill-rule="evenodd" d="M6 3.5a.5.5 0 0 1 .5-.5h8a.5.5 0 0 1 .5.5v9a.5.5 0 0 1-.5.5h-8a.5.5 0 0 1-.5-.5v-2a.5.5 0 0 0-1 0v2A1.5 1.5 0 0 0 6.5 14h8a1.5 1.5 0 0 0 1.5-1.5v-9A1.5 1.5 0 0 0 14.5 2h-8A1.5 1.5 0 0 0 5 3.5v2a.5.5 0 0 0 1 0v-2z"/>
		<path fill-rule="evenodd" d="M11.854 8.354a.5.5 0 0 0 0-.708l-3-3a.5.5 0 1 0-.708.708L10.293 7.5H1.5a.5.5 0 0 0 0 1h8.793l-2.147 2.146a.5.5 0 0 0 .708.708l3-3z"/>
	</symbol>
	<symbol id="icon-am-registration" xmlns="http://www.w3.org/2000/svg" fill="currentColor" viewBox="0 0 16 16">
		<path d="M6 8a3 3 0 1 0 0-6 3 3 0 0 0 0 6zm2-3a2 2 0 1 1-4 0 2 2 0 0 1 4 0zm4 8c0 1-1 1-1 1H1s-1 0-1-1 1-4 6-4 6 3 6 4zm-1-.004c-.001-.246-.154-.986-.832-1.664C9.516 10.68 8.289 10 6 10c-2.29 0-3.516.68-4.168 1.332-.678.678-.83 1.418-.832 1.664h10z"/>
		<path fill-rule="evenodd" d="M13.5 5a.5.5 0 0 1 .5.5V7h1.5a.5.5 0 0 1 0 1H14v1.5a.5.5 0 0 1-1 0V8h-1.5a.5.5 0 0 1 0-1H13V5.5a.5.5 0 0 1 .5-.5z"/>
	</symbol>
	<symbol id="icon-am-forgot-password" xmlns="http://www.w3.org/2000/svg" fill="currentColor" viewBox="0 0 16 16">
		<path d="M4.54.146A.5.5 0 0 1 4.893 0h6.214a.5.5 0 0 1 .353.146l4.394 4.394a.5.5 0 0 1 .146.353v6.214a.5.5 0 0 1-.146.353l-4.394 4.394a.5.5 0 0 1-.353.146H4.893a.5.5 0 0 1-.353-.146L.146 11.46A.5.5 0 0 1 0 11.107V4.893a.5.5 0 0 1 .146-.353L4.54.146zM5.1 1 1 5.1v5.8L5.1 15h5.8l4.1-4.1V5.1L10.9 1H5.1z"/>
		<path d="M5.255 5.786a.237.237 0 0 0 .241.247h.825c.138 0 .248-.113.266-.25.09-.656.54-1.134 1.342-1.134.686 0 1.314.343 1.314 1.168 0 .635-.374.927-.965 1.371-.673.489-1.206 1.06-1.168 1.987l.003.217a.25.25 0 0 0 .25.246h.811a.25.25 0 0 0 .25-.25v-.105c0-.718.273-.927 1.01-1.486.609-.463 1.244-.977 1.244-2.056 0-1.511-1.276-2.241-2.673-2.241-1.267 0-2.655.59-2.75 2.286zm1.557 5.763c0 .533.425.927 1.01.927.609 0 1.028-.394 1.028-.927 0-.552-.42-.94-1.029-.94-.584 0-1.009.388-1.009.94z"/>
	</symbol>
	<symbol id="icon-am-person" xmlns="http://www.w3.org/2000/svg" fill="currentColor" viewBox="0 0 16 16">
		<path d="M8 8a3 3 0 1 0 0-6 3 3 0 0 0 0 6zm2-3a2 2 0 1 1-4 0 2 2 0 0 1 4 0zm4 8c0 1-1 1-1 1H3s-1 0-1-1 1-4 6-4 6 3 6 4zm-1-.004c-.001-.246-.154-.986-.832-1.664C11.516 10.68 10.289 10 8 10c-2.29 0-3.516.68-4.168 1.332-.678.678-.83 1.418-.832 1.664h10z"/>
	</symbol>
	<symbol id="icon-am-account-edit" xmlns="http://www.w3.org/2000/svg" fill="currentColor" viewBox="0 0 16 16">
		<path d="M5 10.5a.5.5 0 0 1 .5-.5h2a.5.5 0 0 1 0 1h-2a.5.5 0 0 1-.5-.5zm0-2a.5.5 0 0 1 .5-.5h5a.5.5 0 0 1 0 1h-5a.5.5 0 0 1-.5-.5zm0-2a.5.5 0 0 1 .5-.5h5a.5.5 0 0 1 0 1h-5a.5.5 0 0 1-.5-.5zm0-2a.5.5 0 0 1 .5-.5h5a.5.5 0 0 1 0 1h-5a.5.5 0 0 1-.5-.5z"/>
		<path d="M3 0h10a2 2 0 0 1 2 2v12a2 2 0 0 1-2 2H3a2 2 0 0 1-2-2v-1h1v1a1 1 0 0 0 1 1h10a1 1 0 0 0 1-1V2a1 1 0 0 0-1-1H3a1 1 0 0 0-1 1v1H1V2a2 2 0 0 1 2-2z"/>
		<path d="M1 5v-.5a.5.5 0 0 1 1 0V5h.5a.5.5 0 0 1 0 1h-2a.5.5 0 0 1 0-1H1zm0 3v-.5a.5.5 0 0 1 1 0V8h.5a.5.5 0 0 1 0 1h-2a.5.5 0 0 1 0-1H1zm0 3v-.5a.5.5 0 0 1 1 0v.5h.5a.5.5 0 0 1 0 1h-2a.5.5 0 0 1 0-1H1z"/>
	</symbol>
	<symbol id="icon-am-change-password" viewBox="0 0 16 16" fill="none" xmlns="http://www.w3.org/2000/svg">
		<path d="M8 1C8.63652 1 9.24697 1.21071 9.69706 1.58579C10.1471 1.96086 10.4 2.46957 10.4 3V7H5.6V3C5.6 2.46957 5.85286 1.96086 6.30294 1.58579C6.75303 1.21071 7.36348 1 8 1ZM11.6 7V3C11.6 2.20435 11.2207 1.44129 10.5456 0.87868C9.87045 0.316071 8.95478 0 8 0C7.04522 0 6.12955 0.316071 5.45442 0.87868C4.77928 1.44129 4.4 2.20435 4.4 3V7C3.76348 7 3.15303 7.21071 2.70294 7.58579C2.25286 7.96086 2 8.46957 2 9V14C2 14.5304 2.25286 15.0391 2.70294 15.4142C3.15303 15.7893 3.76348 16 4.4 16H11.6C12.2365 16 12.847 15.7893 13.2971 15.4142C13.7471 15.0391 14 14.5304 14 14V9C14 8.46957 13.7471 7.96086 13.2971 7.58579C12.847 7.21071 12.2365 7 11.6 7ZM4.4 8H11.6C11.9183 8 12.2235 8.10536 12.4485 8.29289C12.6736 8.48043 12.8 8.73478 12.8 9V14C12.8 14.2652 12.6736 14.5196 12.4485 14.7071C12.2235 14.8946 11.9183 15 11.6 15H4.4C4.08174 15 3.77652 14.8946 3.55147 14.7071C3.32643 14.5196 3.2 14.2652 3.2 14V9C3.2 8.73478 3.32643 8.48043 3.55147 8.29289C3.77652 8.10536 4.08174 8 4.4 8Z" fill="currentColor"/>
	</symbol>
	<symbol id="icon-am-address-book" xmlns="http://www.w3.org/2000/svg" fill="currentColor" viewBox="0 0 16 16">
		<path d="M0 3.5A1.5 1.5 0 0 1 1.5 2h9A1.5 1.5 0 0 1 12 3.5V5h1.02a1.5 1.5 0 0 1 1.17.563l1.481 1.85a1.5 1.5 0 0 1 .329.938V10.5a1.5 1.5 0 0 1-1.5 1.5H14a2 2 0 1 1-4 0H5a2 2 0 1 1-3.998-.085A1.5 1.5 0 0 1 0 10.5v-7zm1.294 7.456A1.999 1.999 0 0 1 4.732 11h5.536a2.01 2.01 0 0 1 .732-.732V3.5a.5.5 0 0 0-.5-.5h-9a.5.5 0 0 0-.5.5v7a.5.5 0 0 0 .294.456zM12 10a2 2 0 0 1 1.732 1h.768a.5.5 0 0 0 .5-.5V8.35a.5.5 0 0 0-.11-.312l-1.48-1.85A.5.5 0 0 0 13.02 6H12v4zm-9 1a1 1 0 1 0 0 2 1 1 0 0 0 0-2zm9 0a1 1 0 1 0 0 2 1 1 0 0 0 0-2z"/>
	</symbol>
	<symbol id="icon-am-notify-stock" xmlns="http://www.w3.org/2000/svg" viewBox="0 0 24 24" fill="none" stroke="currentColor" stroke-width="1.5" stroke-linecap="round" stroke-linejoin="round">
		<path d="M22 17H2a3 3 0 0 0 3-3V9a7 7 0 0 1 14 0v5a3 3 0 0 0 3 3zm-8.27 4a2 2 0 0 1-3.46 0"></path>
	</symbol>
	<symbol id="icon-am-wishlist" viewBox="0 0 16 15" fill="none" xmlns="http://www.w3.org/2000/svg">
		<path d="M14.2494 2.10701C13.8986 1.75606 13.4821 1.47765 13.0237 1.28771C12.5653 1.09777 12.0739 1 11.5777 1C11.0815 1 10.5902 1.09777 10.1317 1.28771C9.67332 1.47765 9.25682 1.75606 8.90603 2.10701L8.17802 2.83503L7.45 2.10701C6.74143 1.39844 5.7804 1.00037 4.77832 1.00037C3.77625 1.00037 2.81522 1.39844 2.10665 2.10701C1.39807 2.81559 1 3.77662 1 4.77869C1 5.78076 1.39807 6.7418 2.10665 7.45037L2.83466 8.17838L8.17802 13.5217L13.5214 8.17838L14.2494 7.45037C14.6003 7.09958 14.8787 6.68308 15.0687 6.22466C15.2586 5.76625 15.3564 5.2749 15.3564 4.77869C15.3564 4.28248 15.2586 3.79113 15.0687 3.33272C14.8787 2.8743 14.6003 2.4578 14.2494 2.10701Z" stroke="currentColor" stroke-linecap="round" stroke-linejoin="round"/>
	</symbol>
	<symbol id="icon-am-order-history" xmlns="http://www.w3.org/2000/svg" fill="currentColor" viewBox="0 0 16 16">
	  <path d="M8 1a2 2 0 0 1 2 2v2H6V3a2 2 0 0 1 2-2zm3 4V3a3 3 0 1 0-6 0v2H3.36a1.5 1.5 0 0 0-1.483 1.277L.85 13.13A2.5 2.5 0 0 0 3.322 16h9.355a2.5 2.5 0 0 0 2.473-2.87l-1.028-6.853A1.5 1.5 0 0 0 12.64 5H11zm-1 1v1.5a.5.5 0 0 0 1 0V6h1.639a.5.5 0 0 1 .494.426l1.028 6.851A1.5 1.5 0 0 1 12.678 15H3.322a1.5 1.5 0 0 1-1.483-1.723l1.028-6.851A.5.5 0 0 1 3.36 6H5v1.5a.5.5 0 1 0 1 0V6h4z"/>
	</symbol>
	<symbol id="icon-am-downloads" xmlns="http://www.w3.org/2000/svg" fill="currentColor" viewBox="0 0 16 16">
		<path fill-rule="evenodd" d="M7.646 10.854a.5.5 0 0 0 .708 0l2-2a.5.5 0 0 0-.708-.708L8.5 9.293V5.5a.5.5 0 0 0-1 0v3.793L6.354 8.146a.5.5 0 1 0-.708.708l2 2z"/>
		<path d="M4.406 3.342A5.53 5.53 0 0 1 8 2c2.69 0 4.923 2 5.166 4.579C14.758 6.804 16 8.137 16 9.773 16 11.569 14.502 13 12.687 13H3.781C1.708 13 0 11.366 0 9.318c0-1.763 1.266-3.223 2.942-3.593.143-.863.698-1.723 1.464-2.383zm.653.757c-.757.653-1.153 1.44-1.153 2.056v.448l-.445.049C2.064 6.805 1 7.952 1 9.318 1 10.785 2.23 12 3.781 12h8.906C13.98 12 15 10.988 15 9.773c0-1.216-1.02-2.228-2.313-2.228h-.5v-.5C12.188 4.825 10.328 3 8 3a4.53 4.53 0 0 0-2.941 1.1z"/>
	</symbol>
	<symbol id="icon-am-recurring" xmlns="http://www.w3.org/2000/svg" fill="currentColor" viewBox="0 0 16 16">
		<path d="M11 5.5a.5.5 0 0 1 .5-.5h2a.5.5 0 0 1 .5.5v1a.5.5 0 0 1-.5.5h-2a.5.5 0 0 1-.5-.5v-1z"/>
		<path d="M2 2a2 2 0 0 0-2 2v8a2 2 0 0 0 2 2h12a2 2 0 0 0 2-2V4a2 2 0 0 0-2-2H2zm13 2v5H1V4a1 1 0 0 1 1-1h12a1 1 0 0 1 1 1zm-1 9H2a1 1 0 0 1-1-1v-1h14v1a1 1 0 0 1-1 1z"/>
	</symbol>
	<symbol id="icon-am-reward-points" xmlns="http://www.w3.org/2000/svg" fill="currentColor" viewBox="0 0 16 16">
		<path d="M3 2.5a2.5 2.5 0 0 1 5 0 2.5 2.5 0 0 1 5 0v.006c0 .07 0 .27-.038.494H15a1 1 0 0 1 1 1v2a1 1 0 0 1-1 1v7.5a1.5 1.5 0 0 1-1.5 1.5h-11A1.5 1.5 0 0 1 1 14.5V7a1 1 0 0 1-1-1V4a1 1 0 0 1 1-1h2.038A2.968 2.968 0 0 1 3 2.506V2.5zm1.068.5H7v-.5a1.5 1.5 0 1 0-3 0c0 .085.002.274.045.43a.522.522 0 0 0 .023.07zM9 3h2.932a.56.56 0 0 0 .023-.07c.043-.156.045-.345.045-.43a1.5 1.5 0 0 0-3 0V3zM1 4v2h6V4H1zm8 0v2h6V4H9zm5 3H9v8h4.5a.5.5 0 0 0 .5-.5V7zm-7 8V7H2v7.5a.5.5 0 0 0 .5.5H7z"/>
	</symbol>
	<symbol id="icon-am-returns1" xmlns="http://www.w3.org/2000/svg" fill="currentColor" viewBox="0 0 16 16">
		<path d="M6.598 5.013a.144.144 0 0 1 .202.134V6.3a.5.5 0 0 0 .5.5c.667 0 2.013.005 3.3.822.984.624 1.99 1.76 2.595 3.876-1.02-.983-2.185-1.516-3.205-1.799a8.74 8.74 0 0 0-1.921-.306 7.404 7.404 0 0 0-.798.008h-.013l-.005.001h-.001L7.3 9.9l-.05-.498a.5.5 0 0 0-.45.498v1.153c0 .108-.11.176-.202.134L2.614 8.254a.503.503 0 0 0-.042-.028.147.147 0 0 1 0-.252.499.499 0 0 0 .042-.028l3.984-2.933zM7.8 10.386c.068 0 .143.003.223.006.434.02 1.034.086 1.7.271 1.326.368 2.896 1.202 3.94 3.08a.5.5 0 0 0 .933-.305c-.464-3.71-1.886-5.662-3.46-6.66-1.245-.79-2.527-.942-3.336-.971v-.66a1.144 1.144 0 0 0-1.767-.96l-3.994 2.94a1.147 1.147 0 0 0 0 1.946l3.994 2.94a1.144 1.144 0 0 0 1.767-.96v-.667z"/>
	</symbol>
	<symbol id="icon-am-returns" viewBox="0 0 20 17" fill="currentColor" xmlns="http://www.w3.org/2000/svg">
		<path d="M8.24733 3.76626C8.27494 3.75411 8.30517 3.74909 8.33523 3.75166C8.36528 3.75424 8.39421 3.76433 8.41935 3.78101C8.44449 3.79768 8.46504 3.82041 8.4791 3.8471C8.49316 3.8738 8.50029 3.90359 8.49983 3.93376V5.37501C8.49983 5.54077 8.56568 5.69974 8.68289 5.81695C8.8001 5.93416 8.95907 6.00001 9.12483 6.00001C9.95858 6.00001 11.6411 6.00626 13.2498 7.02751C14.4798 7.80751 15.7373 9.22751 16.4936 11.8725C15.2186 10.6438 13.7623 9.97751 12.4873 9.62376C11.7036 9.40731 10.8982 9.27901 10.0861 9.24126C9.75364 9.22666 9.42066 9.23 9.08858 9.25126H9.07233L9.06608 9.25251H9.06483L9.12483 9.87501L9.06233 9.25251C8.90806 9.26802 8.76506 9.34031 8.6611 9.45535C8.55715 9.57039 8.49967 9.71996 8.49983 9.87501V11.3163C8.49983 11.4513 8.36233 11.5363 8.24733 11.4838L3.26733 7.81751C3.25043 7.80497 3.2329 7.79329 3.21483 7.78251C3.18765 7.76618 3.16516 7.74309 3.14955 7.71549C3.13393 7.68789 3.12573 7.65672 3.12573 7.62501C3.12573 7.5933 3.13393 7.56213 3.14955 7.53453C3.16516 7.50693 3.18765 7.48384 3.21483 7.46751C3.23291 7.45674 3.25043 7.44506 3.26733 7.43251L8.24733 3.76626ZM9.74983 10.4825C9.83483 10.4825 9.92858 10.4863 10.0286 10.49C10.5711 10.515 11.3211 10.5975 12.1536 10.8288C13.8111 11.2888 15.7736 12.3313 17.0786 14.6788C17.1492 14.8055 17.2616 14.9037 17.3966 14.9566C17.5317 15.0095 17.6809 15.0138 17.8188 14.9687C17.9567 14.9237 18.0746 14.832 18.1523 14.7096C18.23 14.5871 18.2627 14.4414 18.2448 14.2975C17.6648 9.66001 15.8873 7.22001 13.9198 5.97251C12.3636 4.98501 10.7611 4.79501 9.74983 4.75876V3.93376C9.74995 3.67635 9.68058 3.42367 9.54904 3.2024C9.41751 2.98113 9.22868 2.79947 9.0025 2.67658C8.77631 2.5537 8.52114 2.49414 8.26393 2.50421C8.00671 2.51427 7.75698 2.59358 7.54108 2.73376L2.54858 6.40876C2.34218 6.5376 2.17196 6.71684 2.05395 6.92962C1.93594 7.14239 1.87402 7.3817 1.87402 7.62501C1.87402 7.86832 1.93594 8.10763 2.05395 8.3204C2.17196 8.53318 2.34218 8.71242 2.54858 8.84126L7.54108 12.5163C7.75698 12.6564 8.00671 12.7357 8.26393 12.7458C8.52114 12.7559 8.77631 12.6963 9.0025 12.5734C9.22868 12.4506 9.41751 12.2689 9.54904 12.0476C9.68058 11.8263 9.74995 11.5737 9.74983 11.3163V10.4825V10.4825Z"/>
	</symbol>
	<symbol id="icon-am-transactions" xmlns="http://www.w3.org/2000/svg" fill="currentColor" viewBox="0 0 16 16">
		<path d="M14 3a1 1 0 0 1 1 1v8a1 1 0 0 1-1 1H2a1 1 0 0 1-1-1V4a1 1 0 0 1 1-1h12zM2 2a2 2 0 0 0-2 2v8a2 2 0 0 0 2 2h12a2 2 0 0 0 2-2V4a2 2 0 0 0-2-2H2z"/>
		<path d="M2 5.5a.5.5 0 0 1 .5-.5h2a.5.5 0 0 1 .5.5v1a.5.5 0 0 1-.5.5h-2a.5.5 0 0 1-.5-.5v-1zm0 3a.5.5 0 0 1 .5-.5h5a.5.5 0 0 1 0 1h-5a.5.5 0 0 1-.5-.5zm0 2a.5.5 0 0 1 .5-.5h1a.5.5 0 0 1 0 1h-1a.5.5 0 0 1-.5-.5zm3 0a.5.5 0 0 1 .5-.5h1a.5.5 0 0 1 0 1h-1a.5.5 0 0 1-.5-.5zm3 0a.5.5 0 0 1 .5-.5h1a.5.5 0 0 1 0 1h-1a.5.5 0 0 1-.5-.5zm3 0a.5.5 0 0 1 .5-.5h1a.5.5 0 0 1 0 1h-1a.5.5 0 0 1-.5-.5z"/>
	</symbol>
	<symbol id="icon-am-newsletter" xmlns="http://www.w3.org/2000/svg" fill="currentColor" viewBox="0 0 16 16">
		<path d="M0 4a2 2 0 0 1 2-2h12a2 2 0 0 1 2 2v8a2 2 0 0 1-2 2H2a2 2 0 0 1-2-2V4Zm2-1a1 1 0 0 0-1 1v.217l7 4.2 7-4.2V4a1 1 0 0 0-1-1H2Zm13 2.383-4.708 2.825L15 11.105V5.383Zm-.034 6.876-5.64-3.471L8 9.583l-1.326-.795-5.64 3.47A1 1 0 0 0 2 13h12a1 1 0 0 0 .966-.741ZM1 11.105l4.708-2.897L1 5.383v5.722Z"/>
	</symbol>
	<symbol id="icon-am-logout" xmlns="http://www.w3.org/2000/svg" fill="currentColor" viewBox="0 0 16 16">
		<path fill-rule="evenodd" d="M10 12.5a.5.5 0 0 1-.5.5h-8a.5.5 0 0 1-.5-.5v-9a.5.5 0 0 1 .5-.5h8a.5.5 0 0 1 .5.5v2a.5.5 0 0 0 1 0v-2A1.5 1.5 0 0 0 9.5 2h-8A1.5 1.5 0 0 0 0 3.5v9A1.5 1.5 0 0 0 1.5 14h8a1.5 1.5 0 0 0 1.5-1.5v-2a.5.5 0 0 0-1 0v2z"/>
		<path fill-rule="evenodd" d="M15.854 8.354a.5.5 0 0 0 0-.708l-3-3a.5.5 0 0 0-.708.708L14.293 7.5H5.5a.5.5 0 0 0 0 1h8.793l-2.147 2.146a.5.5 0 0 0 .708.708l3-3z"/>
	</symbol>
</svg>

