<?xml version="1.0" standalone="no"?>
<!DOCTYPE svg PUBLIC "-//W3C//DTD SVG 1.1//EN" "http://www.w3.org/Graphics/SVG/1.1/DTD/svg11.dtd" >
<svg xmlns="http://www.w3.org/2000/svg">
<metadata>
<json>
<![CDATA[
{
	"fontFamily": "upstore",
	"majorVersion": 1,
	"minorVersion": 0,
	"designer": "29aleksey",
	"version": "Version 1.0",
	"fontId": "upstore",
	"psName": "upstore",
	"subFamily": "Regular",
	"fullName": "upstore",
	"description": "Font generated by IcoMoon."
}
]]>
</json>
</metadata>
<defs>
<font id="upstore" horiz-adv-x="512">
<font-face units-per-em="512" ascent="440.32" descent="-71.68" />
<missing-glyph horiz-adv-x="512" />
<glyph unicode="&#x20;" horiz-adv-x="5.12" d="" />
<glyph unicode="&#xe900;" glyph-name="account" data-tags="account" d="M256 245.333v0c-35.346 0-64 28.654-64 64s28.654 64 64 64v0c35.346 0 64-28.654 64-64s-28.654-64-64-64zM256 213.333c53.019 0 96 42.98 96 96s-42.981 96-96 96v0c-53.019 0-96-42.981-96-96s42.981-96 96-96v0zM163.69 151.894l-0.042 0.092c-2.626 5.245-8.050 8.846-14.316 8.846-2.571 0-5.001-0.606-7.061-1.642l-38.397-18.863c-12.033-6.037-21.701-16.091-27.395-28.774l-15.36-34.688c-20.245-45.824 13.312-97.365 63.424-97.365h262.912c50.112 0 83.669 51.541 63.403 97.365l-15.317 34.688-0.149 0.37c-5.555 12.318-15.239 22.375-27.627 28.558l-37.944 18.668c-2.138 1.060-4.546 1.654-7.094 1.654-8.837 0-16-7.163-16-16 0-6.241 3.574-11.648 8.878-14.327l38.192-18.779c5.477-2.738 9.88-7.307 12.475-13.072l15.317-34.688-0.095 0.236c2.111-4.68 3.286-9.872 3.286-15.339 0-20.615-16.71-37.329-37.325-37.334h-262.911c-0.004 0-0.009 0-0.014 0-20.618 0-37.334 16.714-37.334 37.334 0 5.467 1.175 10.66 3.192 15.104l15.406 34.856c2.528 5.597 6.93 10.165 12.561 12.974l38.13 18.751c5.245 2.627 8.846 8.050 8.846 14.315 0 2.572-0.607 5.001-1.643 7.062z" />
<glyph unicode="&#xe901;" glyph-name="angle-down" data-tags="angle-down" horiz-adv-x="326" d="M149.458 180.271c3.927-3.125 8.958-5.015 14.432-5.015 5.565 0 10.674 1.954 14.678 5.212l-0.042-0.034 86.109 69.678c3.962 3.226 9.072 5.18 14.639 5.18 12.854 0 23.274-10.421 23.274-23.274 0-7.288-3.349-13.793-8.594-18.061l-0.043-0.034-86.109-69.679c-11.885-9.673-27.21-15.532-43.904-15.532-16.432 0-31.538 5.676-43.464 15.175l0.142-0.109-88.46 69.981c-5.542 4.297-9.075 10.956-9.075 18.44 0 12.853 10.419 23.273 23.273 23.273 5.576 0 10.694-1.961 14.702-5.231l88.441-69.971z" />
<glyph unicode="&#xe902;" glyph-name="angle-left" data-tags="angle-left" horiz-adv-x="280" d="M127.93 205.475c-3.138-3.931-5.036-8.973-5.036-14.458 0-5.563 1.953-10.671 5.209-14.675l-0.034 0.043 69.678-86.109c3.226-3.962 5.18-9.072 5.18-14.639 0-12.854-10.421-23.274-23.274-23.274-7.288 0-13.793 3.349-18.061 8.594l-0.034 0.043-69.678 86.109c-9.673 11.885-15.532 27.211-15.532 43.904 0 16.432 5.677 31.538 15.175 43.464l-0.109-0.142 69.981 88.459c4.297 5.542 10.956 9.075 18.44 9.075 12.853 0 23.273-10.419 23.273-23.272 0-5.576-1.961-10.694-5.231-14.702l-69.948-88.418z" />
<glyph unicode="&#xe903;" glyph-name="arrow-left" data-tags="arrow-left" d="M209.119 123.058c-2.834-2.289-6.481-3.675-10.451-3.675-5.246 0-9.927 2.42-12.988 6.204l-0.024 0.031-53.983 67.183c-2.292 2.834-3.678 6.482-3.678 10.454 0 4.010 1.414 7.689 3.769 10.567l-0.024-0.030 53.96 66.359c3.085 3.844 7.784 6.285 13.052 6.285 9.221 0 16.696-7.475 16.696-16.696 0-4.060-1.449-7.781-3.858-10.675l0.022 0.027-31.833-39.179h187.525c9.221 0 16.695-7.475 16.695-16.696s-7.475-16.695-16.695-16.695v0h-187.77l32.144-40.003c2.296-2.836 3.686-6.488 3.686-10.464 0-5.251-2.424-9.936-6.214-12.997l-0.032-0.025z" />
<glyph unicode="&#xe904;" glyph-name="arrow-right" data-tags="arrow-right" d="M302.882 282.668c2.836 2.296 6.488 3.686 10.464 3.686 5.251 0 9.936-2.424 12.997-6.215l0.025-0.032 53.961-67.183c2.291-2.834 3.678-6.482 3.678-10.454 0-4.010-1.413-7.689-3.769-10.567l0.024 0.029-53.961-66.382c-3.086-3.844-7.784-6.284-13.052-6.284-9.221 0-16.695 7.475-16.695 16.695 0 4.060 1.449 7.781 3.858 10.675l-0.022-0.027 31.833 39.179h-187.525c-9.221 0-16.696 7.475-16.696 16.696s7.475 16.696 16.696 16.696v0h187.77l-32.144 40.003c-2.296 2.836-3.686 6.488-3.686 10.464 0 5.251 2.424 9.936 6.214 12.997l0.032 0.025z" />
<glyph unicode="&#xe905;" glyph-name="cart" data-tags="cart" d="M133.333 252.48l-0.144-0.007c-25.176-1.655-45.084-22.599-45.084-48.194 0-2.088 0.132-4.143 0.365-5.922l17.002-142.528 0.021-0.223c2.665-22.928 21.56-40.904 45.013-42.145 81.749-3.69 133.269-3.733 211.136-0.106l0.123 0.005c23.255 1.279 42.070 19.214 44.741 42.298l17.002 142.698-0.025-0.239c0.257 2.018 0.389 4.075 0.389 6.162 0 25.587-19.897 46.527-45.207 48.2v-26.838c0-8.837-7.163-16-16-16s-16 7.163-16 16v26.944h-181.333v-26.987c0-8.837-7.163-16-16-16s-16 7.163-16 16v26.88zM377.984 284.523c47.040-1.216 82.923-42.923 77.312-89.942l-17.024-142.72c-4.608-38.592-36.139-68.672-75.136-70.486-78.912-3.648-131.413-3.627-214.080 0.128-39.040 1.75-70.742 31.829-75.35 70.528l-17.002 142.528c-5.611 47.040 30.272 88.746 77.291 89.963 3.114 36.394 16.896 65.344 37.334 85.888 21.551 21.577 51.337 34.924 84.24 34.924 0.152 0 0.304-0.001 0.455-0.001h-0.024c30.656 0 61.483-11.584 84.694-34.923 20.416-20.565 34.197-49.493 37.291-85.888zM345.856 284.565c-2.966 28.267-13.738 49.066-27.882 63.296-15.755 15.74-37.513 25.473-61.544 25.473-0.151 0-0.302-0.001-0.453-0.001h0.023c-22.678 0-45.184-8.534-61.995-25.472-14.123-14.208-24.896-35.029-27.862-63.296h179.712z" />
<glyph unicode="&#xe906;" glyph-name="check-circle" data-tags="check-circle" d="M329.753 357.437c-21.679 9.907-47.019 15.683-73.712 15.683-100.013 0-181.088-81.075-181.088-181.088s81.075-181.088 181.088-181.088c99.972 0 181.022 81.013 181.088 180.971v19.102c0 14.76 11.963 26.717 26.717 26.717s26.717-11.963 26.717-26.717v0-19.132c-0.062-129.498-105.057-234.45-234.562-234.45-129.544 0-234.562 105.016-234.562 234.562s105.016 234.562 234.562 234.562c34.572 0 67.398-7.479 96.95-20.909l-1.469 0.599c9.137-4.379 15.337-13.549 15.337-24.175 0-14.76-11.963-26.717-26.717-26.717-3.738 0-7.298 0.766-10.526 2.154l0.175-0.069zM482.731 377.067c4.827-4.836 7.814-11.509 7.814-18.883s-2.988-14.046-7.815-18.882l-207.807-208.056c-4.836-4.827-11.509-7.814-18.882-7.814s-14.047 2.988-18.882 7.815v0l-62.345 62.345c-4.443 4.761-7.171 11.169-7.171 18.213 0 14.76 11.963 26.717 26.717 26.717 7.049 0 13.458-2.727 18.233-7.185l-0.015 0.014 43.466-43.427 188.889 189.102c4.836 4.826 11.509 7.814 18.882 7.814s14.046-2.988 18.882-7.815v0z" />
<glyph unicode="&#xe907;" glyph-name="compare" data-tags="compare" d="M254.805 405.334c0.008 0 0.018 0 0.028 0 4.819 0 9.194-1.903 12.415-4.998l-0.006 0.005c3.307-3.2 5.163-7.51 5.163-12.032v-24.064l141.418 27.669c1.050 0.216 2.255 0.339 3.49 0.339 3.17 0 6.149-0.813 8.742-2.243l-0.094 0.047c3.633-1.992 6.415-5.154 7.875-8.97l0.039-0.118 47.36-128.128c7.253-19.626 9.771-42.24 4.864-62.72-4.992-20.8-18.091-40.214-42.24-49.28-7.867-3.147-16.981-5.017-26.518-5.12l-0.042-0c-9.536 0-18.517 2.091-26.538 5.12-24.149 9.067-37.269 28.522-42.24 49.28-4.885 20.438-2.346 43.094 4.864 62.72l36.842 99.712-117.824-23.040v-316.8h109.013c4.837-0.014 9.225-1.921 12.466-5.020l-0.007 0.007c3.142-3.055 5.103-7.311 5.142-12.025v-0.007c0-0.014 0-0.031 0-0.046 0-4.707-1.972-8.952-5.135-11.957l-0.007-0.007c-3.168-3.088-7.502-4.993-12.281-4.993-0.063 0-0.125 0-0.188 0.001h-253.196c-0.014 0-0.032 0-0.049 0-4.82 0-9.195 1.902-12.415 4.998l0.006-0.005c-3.159 3.036-5.126 7.293-5.141 12.007v0.003c0 4.522 1.856 8.853 5.141 12.032 3.215 3.089 7.59 4.992 12.409 4.992 0.018 0 0.035 0 0.052 0h109.011v309.654l-119.552-24.938 39.36-95.872c7.851-19.115 11.2-41.216 7.381-61.632-3.882-20.736-15.488-40.49-37.824-51.733-9.472-4.8-20.715-8.534-32.938-8.534-12.181 0-23.424 3.733-32.938 8.534-22.315 11.243-33.92 31.019-37.803 51.733-3.819 20.416-0.47 42.496 7.36 61.632l47.019 114.538c1.067 2.603 2.773 4.906 4.992 6.699 2.135 1.742 4.725 3.011 7.564 3.606l0.116 0.020 147.243 30.763v31.146c0 4.523 1.856 8.854 5.142 12.032 3.214 3.089 7.59 4.992 12.41 4.992 0.018 0 0.035 0 0.052 0h-0.002zM93.653 263.659l-30.635-74.666c-5.888-14.315-7.894-29.93-5.462-43.008 2.368-12.736 8.768-22.272 19.434-27.669 6.293-3.158 11.904-4.651 16.683-4.651s10.347 1.514 16.64 4.651c10.688 5.418 17.067 14.912 19.434 27.669 2.453 13.077 0.448 28.693-5.44 42.986l-30.656 74.666zM417.301 324.65l-30.741-83.285c-5.418-14.656-6.827-30.613-3.733-43.541 2.986-12.587 9.813-21.205 20.736-25.322 4.928-1.834 9.536-2.774 13.76-2.774 4.267 0 8.853 0.938 13.781 2.774 10.88 4.118 17.707 12.779 20.736 25.322 3.072 12.928 1.664 28.886-3.733 43.541l-30.827 83.264z" />
<glyph unicode="&#xe908;" glyph-name="angle-right" data-tags="angle-right" horiz-adv-x="280" d="M151.343 178.525c3.138 3.931 5.036 8.973 5.036 14.459 0 5.564-1.952 10.672-5.209 14.675l0.034-0.042-69.678 86.109c-3.226 3.962-5.18 9.072-5.18 14.639 0 12.854 10.421 23.274 23.275 23.274 7.288 0 13.793-3.35 18.061-8.594l0.034-0.043 69.678-86.109c9.673-11.885 15.532-27.21 15.532-43.904 0-16.432-5.677-31.538-15.175-43.464l0.109 0.142-69.981-88.459c-4.297-5.542-10.956-9.075-18.44-9.075-12.853 0-23.273 10.419-23.273 23.272 0 5.576 1.961 10.694 5.231 14.702l69.948 88.441z" />
<glyph unicode="&#xe909;" glyph-name="search" data-tags="search" d="M402.812 208.045c0 88.365-71.633 160-160 160-88.365 0-159.999-71.635-159.999-160s71.635-160 159.999-160c88.367 0 160 71.635 160 160zM434.812 208.045c0-106.040-85.961-192-192-192-106.038 0-191.999 85.961-191.999 192s85.961 192 191.999 192c106.039 0 192-85.962 192-192zM416.032 51.817l40.486-40.559c6.245-6.253 6.233-16.384-0.019-22.626-6.255-6.245-16.384-6.233-22.628 0.019l-40.486 40.559c-6.242 6.255-6.233 16.384 0.019 22.628 6.255 6.242 16.386 6.233 22.628-0.022z" />
<glyph unicode="&#xe90a;" glyph-name="search-category" data-tags="search-category" d="M114.666 384v0c-8.837 0-16-7.163-16-16v-130.667c0-8.837 7.163-16 16-16s16 7.163 16 16v130.667c0 8.837-7.163 16-16 16zM264 384v0c-8.837 0-16-7.163-16-16v-77.334h-40c-8.837 0-16-7.163-16-16s7.163-16 16-16h112c8.837 0 16 7.163 16 16s-7.163 16-16 16h-40v77.334c0 8.837-7.163 16-16 16zM413.334 384v0c-8.837 0-16-7.163-16-16v-168c0-8.837 7.163-16 16-16s16 7.163 16 16v168c0 8.837-7.163 16-16 16zM264 216v0c-8.837 0-16-7.163-16-16v-168c0-8.837 7.163-16 16-16s16 7.163 16 16v168c0 8.837-7.163 16-16 16zM42.666 162.666v0c0-8.837 7.163-16 16-16h40v-114.666c0-8.837 7.163-16 16-16s16 7.163 16 16v114.666h40c8.837 0 16 7.163 16 16s-7.163 16-16 16h-112c-8.837 0-16-7.163-16-16zM341.334 125.334v0c0-8.837 7.163-16 16-16h40v-77.334c0-8.837 7.163-16 16-16s16 7.163 16 16v77.334h40c8.837 0 16 7.163 16 16s-7.163 16-16 16h-112c-8.837 0-16-7.163-16-16z" />
<glyph unicode="&#xe90b;" glyph-name="share" data-tags="share" horiz-adv-x="490" d="M356.174 371.668c-21.515 0-38.957-17.442-38.957-38.957s17.442-38.957 38.957-38.957v0c21.515 0 38.957 17.442 38.957 38.957s-17.442 38.957-38.957 38.957v0zM283.826 332.711c0 39.957 32.391 72.348 72.348 72.348s72.348-32.391 72.348-72.348v0c0-39.957-32.391-72.348-72.348-72.348s-72.348 32.391-72.348 72.348v0zM133.565 241.82c-21.515 0-38.957-17.441-38.957-38.957s17.442-38.957 38.957-38.957v0c21.515 0 38.957 17.442 38.957 38.957s-17.441 38.957-38.957 38.957v0zM61.218 202.863c0 39.957 32.391 72.348 72.348 72.348s72.348-32.391 72.348-72.348v0c0-39.957-32.391-72.348-72.348-72.348s-72.348 32.391-72.348 72.348v0zM356.174 111.972c-21.515 0-38.957-17.442-38.957-38.957s17.442-38.957 38.957-38.957v0c21.515 0 38.957 17.442 38.957 38.957s-17.442 38.957-38.957 38.957v0zM283.826 73.015c0 39.957 32.391 72.348 72.348 72.348s72.348-32.391 72.348-72.348v0c0-39.957-32.391-72.348-72.348-72.348s-72.348 32.391-72.348 72.348v0zM167.202 183.229l0.042 0.077c-1.474-2.488-2.319-5.392-2.319-8.493 0-6.123 3.296-11.475 8.287-14.423l126.609-73.752c2.488-1.473 5.392-2.317 8.492-2.317 9.223 0 16.7 7.477 16.7 16.7 0 6.123-3.295 11.476-8.286 14.425l-126.632 73.774c-2.488 1.474-5.392 2.319-8.494 2.319-6.123 0-11.475-3.296-14.423-8.287zM322.538 313.121l-0.043 0.077c-2.907 4.909-8.257 8.2-14.375 8.2-3.094 0-5.993-0.842-8.399-2.267l-126.608-73.882c-4.913-2.907-8.208-8.26-8.208-14.382 0-9.223 7.477-16.7 16.7-16.7 3.101 0 6.004 0.845 8.415 2.275l126.608 73.882c4.909 2.907 8.2 8.257 8.2 14.375 0 3.095-0.842 5.993-2.267 8.399z" />
<glyph unicode="&#xe90c;" glyph-name="slash" data-tags="slash" d="M256 334.848c-72.745 0-131.718-58.972-131.718-131.718s58.972-131.717 131.718-131.717v0c72.745 0 131.717 58.972 131.717 131.718s-58.972 131.718-131.718 131.718v0zM90.891 203.131c0 91.187 73.922 165.109 165.109 165.109s165.109-73.922 165.109-165.109v0c0-91.187-73.922-165.109-165.109-165.109s-165.109 73.922-165.109 165.109v0zM139.264 319.866c3.022 3.024 7.197 4.894 11.81 4.894s8.787-1.87 11.81-4.893l209.853-209.853c2.776-2.974 4.481-6.978 4.481-11.382 0-9.221-7.475-16.695-16.695-16.695-4.404 0-8.409 1.704-11.392 4.49l0.010-0.009-209.898 209.808c-3.017 3.021-4.882 7.192-4.882 11.798s1.866 8.778 4.883 11.798v0z" />
<glyph unicode="&#xe90d;" glyph-name="wishlist" data-tags="wishlist" d="M259.84 11.008l0.135 0.021c-1.289-0.234-2.618-0.356-3.975-0.356s-2.685 0.123-3.84 0.336l-0.064 0.022c-29.206 10.219-79.638 38.144-122.389 83.094-42.326 44.502-75.371 103.68-75.371 177.238 0 57.301 44.8 101.974 97.92 101.974 31.573 0 59.84-15.594 77.824-40.448l0.063-0.091c5.821-7.968 15.234-13.144 25.857-13.144s20.037 5.176 25.92 13.234c17.984 24.81 46.464 40.448 77.824 40.448 53.142 0 97.92-44.672 97.92-101.995 0-73.536-33.024-132.714-75.37-177.216-42.752-44.928-93.184-72.875-122.368-83.115h-0.086zM278.144 375.424c-8.298-6.954-15.744-14.933-22.144-23.786-6.4 8.853-13.824 16.853-22.123 23.808-21.858 18.584-50.409 29.888-81.6 29.888-0.007 0-0.015 0-0.023 0h0.001c-71.722 0-129.92-59.925-129.92-133.974 0-167.808 151.424-266.816 219.179-290.538 7.958-2.88 21.035-2.88 28.97 0 67.755 23.744 219.178 122.731 219.178 290.517 0 74.070-58.176 133.994-129.92 133.994-30.827 0-59.307-11.2-81.6-29.909z" />
<glyph unicode="&#xe90e;" glyph-name="phone" data-tags="phone" d="M180.154 353.21c-3.025 20.643-19.177 35.189-35.701 34.746l-56.948-1.583c-17.688-0.488-29.882-16.058-26.624-31.907 22.109-107.008 62.79-186.577 121.6-244.154 58.81-57.6 137.123-94.534 236.754-113.827 5.515-1.070 11.404-0.209 16.687 2.514 8.61 4.51 14.425 13.307 14.615 23.48l0 0.026 1.14 60.555c0.279 14.662-10.776 27.788-26.717 30.51-19.884 3.25-37.494 7.936-54.377 14.128l2.037-0.654c-13.265 4.794-26.904 2.234-35.398-6.051l-25.832-25.088c-3.142-3.063-7.44-4.953-12.181-4.953-3.41 0-6.591 0.978-9.279 2.668l0.072-0.043c-60.904 37.818-95.325 71.494-132.887 134.307-1.566 2.566-2.493 5.669-2.493 8.99 0 5.097 2.185 9.684 5.668 12.875l0.013 0.012 21.55 19.619c10.007 9.123 13.358 25.949 7.797 42.962-3.893 11.529-7.205 25.317-9.327 39.495l-0.168 1.372zM143.476 422.865c38.353 1.070 66.234-30.837 71.214-64.512 1.745-11.869 4.422-23.808 8.145-35.142 8.378-25.693 5.702-58.485-17.454-79.593l-10.869-9.914c29.254-46.22 57.018-73.588 102.423-103.144l15.942 15.5c19.666 19.084 47.988 22.411 71.633 13.824 15.151-5.493 29.673-9.053 46.289-11.869 31.442-5.353 56.413-32.163 55.784-65.582l-1.163-60.579c-0.452-23.349-13.763-43.486-33.127-53.668l-0.339-0.163c-8.135-4.322-17.786-6.861-28.031-6.861-4.005 0-7.918 0.388-11.707 1.128l0.384-0.063c-104.495 20.248-189.626 59.601-254.557 123.159s-108.218 150.016-131.351 262.051c-7.959 38.586 21.969 72.797 59.858 73.844l56.925 1.583z" />
<glyph unicode="&#xe90f;" glyph-name="phone-sound" data-tags="phone-sound" d="M409.786 349.928c9.728-10.752 17.106-24.832 24.692-47.569l0.035-0.124c2.28-6.986 8.849-12.035 16.597-12.035 9.64 0 17.454 7.814 17.454 17.454 0 2.055-0.355 4.026-0.969 5.735-8.308 24.879-17.571 44.125-31.93 59.974-14.36 15.825-32.582 26.973-56.32 37.795l0.108-0.045c-2.233 1.036-4.721 1.615-7.346 1.615-9.646 0-17.466-7.82-17.466-17.465 0-7.022 4.144-13.076 10.228-15.896 21.877-9.938 35.142-18.688 44.916-29.44zM353.722 297.704c3.7-4.096 6.912-9.844 10.519-20.69l0.035-0.124c2.28-6.986 8.849-12.035 16.597-12.035 9.64 0 17.454 7.815 17.454 17.454 0 2.055-0.355 4.026-0.969 5.735-4.305 12.963-9.425 23.878-17.781 33.094-8.308 9.192-18.664 15.337-31 20.969l0.108-0.045c-2.233 1.037-4.721 1.616-7.346 1.616-9.64 0-17.455-7.815-17.455-17.455 0-7.016 4.139-13.065 10.217-15.883 10.473-4.771 15.896-8.541 19.619-12.637zM180.154 353.21c-3.025 20.643-19.177 35.189-35.701 34.746l-56.948-1.583c-17.688-0.488-29.882-16.058-26.624-31.907 22.109-107.008 62.79-186.577 121.6-244.154 58.81-57.6 137.123-94.534 236.754-113.827 5.515-1.070 11.404-0.209 16.687 2.514 8.61 4.51 14.425 13.307 14.615 23.48l0 0.026 1.14 60.555c0.279 14.662-10.776 27.788-26.717 30.51-19.884 3.25-37.494 7.936-54.377 14.128l2.037-0.654c-13.265 4.794-26.904 2.234-35.398-6.051l-25.832-25.088c-3.142-3.063-7.44-4.953-12.181-4.953-3.41 0-6.591 0.978-9.279 2.668l0.072-0.043c-60.904 37.818-95.325 71.494-132.887 134.307-1.566 2.566-2.493 5.669-2.493 8.99 0 5.097 2.185 9.684 5.668 12.875l0.013 0.012 21.55 19.619c10.007 9.123 13.358 25.949 7.797 42.962-3.893 11.529-7.205 25.317-9.327 39.495l-0.168 1.372zM143.476 422.865c38.353 1.070 66.234-30.837 71.214-64.512 1.745-11.869 4.422-23.808 8.145-35.142 8.378-25.693 5.702-58.485-17.454-79.593l-10.869-9.914c29.254-46.22 57.018-73.588 102.423-103.144l15.942 15.5c19.666 19.084 47.988 22.411 71.633 13.824 15.151-5.493 29.673-9.053 46.289-11.869 31.442-5.353 56.413-32.163 55.784-65.582l-1.163-60.579c-0.452-23.349-13.763-43.486-33.127-53.668l-0.339-0.163c-8.135-4.322-17.786-6.861-28.031-6.861-4.005 0-7.918 0.388-11.707 1.128l0.384-0.063c-104.495 20.248-189.626 59.601-254.557 123.159s-108.218 150.016-131.351 262.051c-7.959 38.586 21.969 72.797 59.858 73.844l56.925 1.583z" />
<glyph unicode="&#xe910;" glyph-name="microphone" data-tags="microphone" horiz-adv-x="419" d="M46.243 248.088c9.64 0 17.455-7.815 17.455-17.454v0-34.397c0-74.938 64.489-137.379 145.757-137.379s145.734 62.464 145.734 137.379v34.397c0 9.64 7.815 17.454 17.454 17.454s17.454-7.815 17.454-17.454v0-34.397c0-95.907-81.85-172.288-180.643-172.288s-180.666 76.381-180.666 172.288v34.397c0 9.64 7.815 17.454 17.454 17.454v0zM98.606 318.952c0 59.275 50.385 105.774 110.545 105.774 60.183 0 110.546-46.499 110.546-105.774v-132.469c0-59.276-50.362-105.774-110.546-105.774-60.16 0-110.546 46.499-110.546 105.774v132.469zM133.516 314.182v-122.927c0-41.773 33.864-75.637 75.636-75.637s75.637 33.863 75.637 75.637v0 122.927c0 41.773-33.863 75.636-75.637 75.636s-75.637-33.863-75.637-75.636v0zM209.454 23.947c9.635 0 17.152 0.768 17.152 0.768v-47.988c0-9.64-7.815-17.454-17.454-17.454s-17.454 7.815-17.454 17.454v0 48.035s8.122-0.815 17.757-0.815zM209.175 319.349c7.191 0 15.29-1.931 27.904-7.447l-0.107 0.045c2.253-1.061 4.769-1.653 7.424-1.653 9.64 0 17.454 7.815 17.454 17.454 0 7.233-4.401 13.44-10.785 16.13-14.662 6.423-27.857 10.38-41.938 10.38-14.056-0.024-27.229-4.026-41.821-10.356l-0.109-0.045c-6.041-2.745-10.242-8.832-10.242-15.899 0-9.64 7.815-17.454 17.454-17.454 2.452 0 4.786 0.506 6.791 1.375 12.661 5.493 20.76 7.47 27.974 7.47zM209.175 254.232c1.885 0 4.631-0.442 10.45-3.002l-0.107 0.045c2.253-1.060 4.769-1.653 7.424-1.653 9.64 0 17.454 7.815 17.454 17.455 0 7.233-4.4 13.439-10.785 16.13-7.843 3.444-15.709 5.934-24.483 5.934-8.75-0.024-16.594-2.536-24.367-5.888l-0.112-0.044c-6.129-2.712-10.406-8.846-10.406-15.979 0-9.646 7.819-17.464 17.465-17.464 2.512 0 4.9 0.53 6.947 1.441 5.864 2.56 8.634 3.025 10.519 3.025z" />
<glyph unicode="&#xe911;" glyph-name="grid-plus" data-tags="grid-plus" d="M438.873 393.144c10.096 0 18.285-8.187 18.285-18.286v-109.714c0-10.099-8.188-18.286-18.285-18.286h-128.002v128c0 10.099 8.187 18.286 18.286 18.286h109.716zM329.158 429.714c-30.297 0-54.858-24.56-54.858-54.857v-164.572h164.573c30.293 0 54.856 24.56 54.856 54.858v109.714c0 30.297-24.563 54.857-54.856 54.857h-109.716zM182.871 393.144c10.099 0 18.286-8.187 18.286-18.286v-128h-128c-10.099 0-18.286 8.187-18.286 18.286v109.714c0 10.099 8.187 18.286 18.286 18.286h109.714zM73.157 429.714c-30.297 0-54.858-24.56-54.858-54.857v-109.714c0-30.297 24.56-54.858 54.858-54.858h164.571v164.571c0 30.297-24.56 54.857-54.857 54.857h-109.714zM201.157 137.144v-127.999c0-10.1-8.187-18.285-18.286-18.285h-109.714c-10.099 0-18.286 8.185-18.286 18.285v109.713c0 10.099 8.187 18.286 18.286 18.286h128zM73.157 173.714c-30.297 0-54.858-24.56-54.858-54.857v-109.713c0-30.296 24.56-54.859 54.858-54.859h109.714c30.297 0 54.857 24.563 54.857 54.859v164.57h-164.571zM384.014 173.714c10.096 0 18.285-8.187 18.285-18.286v-73.144h73.144c10.096 0 18.285-8.188 18.285-18.285s-8.188-18.285-18.285-18.285h-73.144v-73.144c0-10.096-8.188-18.285-18.285-18.285s-18.285 8.188-18.285 18.285v73.144h-73.142c-10.099 0-18.286 8.188-18.286 18.285s8.187 18.285 18.286 18.285h73.142v73.144c0 10.099 8.188 18.286 18.285 18.286z" />
<glyph unicode="&#xe912;" glyph-name="close" data-tags="close" d="M24.564 423.435c9.997 9.998 26.207 9.998 36.204 0l195.231-195.232 195.232 195.232c9.998 9.998 26.204 9.998 36.202 0s9.998-26.207 0-36.204l-195.231-195.231 195.231-195.232c9.998-9.998 9.998-26.204 0-36.202s-26.204-9.998-36.202 0l-195.232 195.231-195.232-195.231c-9.998-9.998-26.206-9.998-36.204 0s-9.998 26.204 0 36.202l195.232 195.232-195.232 195.232c-9.998 9.998-9.998 26.207 0 36.204z" />
<glyph unicode="&#xe913;" glyph-name="message" data-tags="message" horiz-adv-x="538" d="M138.803 322.618c-6.383 0-12.255-0.231-17.739-0.872-0.155-0.018-0.311-0.034-0.466-0.045-32.375-2.587-54.767-12.642-69.185-28.489-14.446-15.878-22.588-39.439-22.588-72.521v-95.804c0-46.584 10.044-70.339 26.019-83.374 16.683-13.611 43.194-18.553 83.959-18.553h10.252c5.252 0 10.413-1.587 14.534-3.533 4.094-1.933 8.544-4.877 11.776-8.827l0.077-0.094 30.776-38.344c4.619-5.783 9.983-7.943 14.607-7.943s9.987 2.161 14.606 7.943l0.018 0.023 30.757 38.32c6.395 7.966 16.292 12.454 26.389 12.454h10.253c35.932 0 61.65 7.7 78.876 21.358 16.919 13.42 27.415 34 30.128 63.764 0.015 0.179 0.036 0.358 0.059 0.535 0.668 4.987 0.914 10.363 0.914 16.269v95.804c0 35.988-9.618 60.732-26.668 76.663-17.211 16.083-44.204 25.264-83.31 25.264h-164.046zM118.329 347.201c6.745 0.775 13.608 1.017 20.474 1.017h164.046c42.657 0 77.053-9.98 100.79-32.16 23.897-22.331 34.788-54.951 34.788-95.367v-95.804c0-6.462-0.261-12.969-1.103-19.392-3.223-34.778-16.048-62.485-39.693-81.234-23.404-18.558-55.613-26.901-94.781-26.901h-10.253c-2.721 0-5.127-1.262-6.423-2.877l-30.739-38.3c-8.965-11.216-21.421-17.564-34.607-17.564s-25.635 6.339-34.6 17.554l-30.674 38.218c-0.035 0.036-0.268 0.284-0.785 0.658-0.56 0.407-1.284 0.839-2.111 1.231-1.839 0.868-3.214 1.080-3.601 1.080h-10.252c-41.001 0-75.879 4.519-100.144 24.317-24.973 20.377-35.434 53.986-35.434 103.209v95.804c0 37.095 9.159 67.664 29.252 89.749 20.079 22.070 49.383 33.808 85.851 36.76zM154.449 400.273c-16.714-12.648-27.46-33.132-30.218-66.356-0.585-7.045-6.77-12.282-13.815-11.698s-12.282 6.77-11.698 13.815c3.153 37.979 16.029 66.298 40.282 84.652 23.742 17.966 56.236 24.694 95.010 24.694h164.456c43.067 0 77.716-11.149 101.468-35.615 23.682-24.396 34.419-59.866 34.419-103.975v-105.879c0-40.635-9.042-73.873-28.921-97.92-20.063-24.269-49.598-37.307-86.572-40.563-7.043-0.62-13.253 4.587-13.873 11.627-0.62 7.043 4.585 13.253 11.627 13.875 32.151 2.832 54.521 13.75 69.084 31.37 14.748 17.841 23.053 44.423 23.053 81.609v105.879c0 40.329-9.822 68.254-27.19 86.144-17.298 17.82-44.194 27.846-83.098 27.846h-164.456c-36.517 0-62.335-6.473-79.561-19.508zM284.711 169.019c0 14.139 11.461 25.6 25.6 25.6h0.231c14.139 0 25.6-11.46 25.6-25.6s-11.461-25.6-25.6-25.6h-0.231c-14.139 0-25.6 11.461-25.6 25.6zM195.11 169.019c0 14.139 11.462 25.6 25.6 25.6h0.231c14.138 0 25.6-11.46 25.6-25.6s-11.462-25.6-25.6-25.6h-0.231c-14.138 0-25.6 11.461-25.6 25.6zM105.51 169.019c0 14.139 11.462 25.6 25.6 25.6h0.231c14.138 0 25.6-11.46 25.6-25.6s-11.462-25.6-25.6-25.6h-0.231c-14.138 0-25.6 11.461-25.6 25.6z" />
<glyph unicode="&#xe914;" glyph-name="star" data-tags="star" d="M213.509 399.898c13.628 27.010 20.442 40.516 29.486 45.025 8.226 4.103 17.785 4.103 26.011 0 9.043-4.51 15.858-18.014 29.486-45.025l38.84-76.976c4-7.932 6-11.898 8.81-15.018 2.595-2.882 5.683-5.229 9.107-6.918 3.705-1.829 7.933-2.594 16.381-4.123l82.013-14.839c28.777-5.207 43.165-7.81 50.061-15.41 6.275-6.914 9.229-16.42 8.038-25.869-1.305-10.387-11.485-21.338-31.837-43.238l-58.010-62.413c-5.978-6.431-8.966-9.648-10.935-13.405-1.821-3.469-3.002-7.267-3.478-11.194-0.519-4.253 0.089-8.691 1.312-17.568l11.846-86.147c4.157-30.227 6.237-45.341 1.456-54.547-4.352-8.377-12.083-14.25-21.046-15.99-9.849-1.907-22.954 4.829-49.161 18.304l-74.69 38.403c-7.696 3.959-11.544 5.936-15.57 6.736-3.719 0.736-7.537 0.736-11.256 0-4.026-0.8-7.874-2.777-15.57-6.736l-74.689-38.403c-26.208-13.475-39.312-20.211-49.163-18.304-8.962 1.741-16.694 7.613-21.044 15.99-4.781 9.207-2.703 24.32 1.454 54.547l11.847 86.147c1.221 8.877 1.831 13.315 1.313 17.568-0.478 3.926-1.659 7.725-3.478 11.194-1.97 3.757-4.959 6.974-10.936 13.405l-58.008 62.412c-20.355 21.9-30.532 32.85-31.839 43.237-1.189 9.45 1.764 18.955 8.038 25.869 6.896 7.599 21.285 10.203 50.061 15.41l82.012 14.839c8.451 1.529 12.675 2.293 16.382 4.123 3.423 1.69 6.512 4.036 9.107 6.918 2.809 3.121 4.809 7.087 8.811 15.018l38.839 76.976z" />
<glyph unicode="&#xe915;" glyph-name="fastorder" data-tags="fastorder" horiz-adv-x="534" d="M412.29 333.648c-0.879 0.161-1.788 0.026-2.582-0.384l-280.789-124.479c-0.859-0.315-1.582-0.919-2.048-1.707-0.406-0.79-0.57-1.679-0.469-2.56 0.061-0.894 0.388-1.75 0.939-2.453 0.609-0.694 1.437-1.152 2.347-1.302l98.987-23.296c7.074-1.645 13.538-5.263 18.639-10.432s8.631-11.678 10.183-18.774l20.48-94.613c0.141-0.909 0.593-1.738 1.28-2.346 0.555-0.469 1.408-0.853 2.432-0.981 0.883-0.113 1.781 0.034 2.582 0.426 0.8 0.438 1.427 1.137 1.771 1.984l129.302 274.858c0.426 0.781 0.578 1.683 0.426 2.56-0.19 0.844-0.618 1.614-1.238 2.219-0.601 0.632-1.372 1.076-2.219 1.28h-0.022zM395.736 364.304c32.576 14.442 65.728-19.050 50.624-51.136l-129.28-274.837c-15.637-33.238-64.853-27.712-72.597 8.149l-20.501 94.613c-0.173 0.787-0.565 1.509-1.131 2.084-0.567 0.574-1.285 0.975-2.070 1.159l-98.987 23.296c-35.882 8.448-40.49 57.258-6.826 72.191l280.768 124.48zM227.031 145.489c-3.16 3.238-4.903 7.601-4.847 12.126 0.058 4.522 1.907 8.841 5.145 12.002l61.611 60.118c3.238 3.161 7.601 4.909 12.128 4.853 4.527-0.054 8.847-1.903 12.010-5.142 3.163-3.24 4.909-7.603 4.856-12.13s-1.905-8.847-5.144-12.008l-61.654-60.117c-3.238-3.153-7.597-4.892-12.115-4.837s-8.832 1.903-11.992 5.135z" />
<glyph unicode="&#xe916;" glyph-name="quickview" data-tags="quickview" d="M54.795 186.488c2.291 3.923 5.529 9.239 9.683 15.52 9.282 14.026 23.037 32.696 40.916 51.31 36.022 37.502 87.003 72.997 150.612 72.997 63.608 0 114.59-35.495 150.611-72.997 17.88-18.613 31.635-37.284 40.915-51.31 4.156-6.28 7.394-11.597 9.683-15.52-2.289-3.921-5.527-9.24-9.683-15.518-9.28-14.026-23.036-32.697-40.915-51.311-36.022-37.502-87.003-72.997-150.611-72.997-63.609 0-114.589 35.495-150.612 72.996-17.879 18.613-31.635 37.284-40.916 51.311-4.154 6.279-7.392 11.597-9.683 15.518zM475.533 186.488c14.24 7.296 14.233 7.306 14.233 7.306l-0.027 0.058-0.066 0.124-0.217 0.416c-0.183 0.35-0.446 0.845-0.787 1.472-0.68 1.256-1.675 3.053-2.976 5.31-2.601 4.512-6.437 10.882-11.471 18.492-10.053 15.19-24.986 35.477-44.525 55.82-38.816 40.411-97.6 82.829-173.69 82.829-76.091 0-134.874-42.418-173.69-82.829-19.541-20.344-34.473-40.63-44.525-55.82-5.035-7.609-8.871-13.98-11.472-18.492-1.301-2.257-2.294-4.054-2.976-5.31-0.34-0.627-0.604-1.122-0.788-1.472l-0.282-0.54-0.021-0.041c0 0-0.014-0.028 14.227-7.323l-14.24 7.296c-2.346-4.58-2.346-10.010 0-14.59l14.24 7.294c-14.24-7.294-14.24-7.294-14.24-7.294l0.035-0.068 0.064-0.126 0.218-0.414c0.184-0.35 0.447-0.845 0.788-1.474 0.681-1.257 1.674-3.050 2.976-5.308 2.601-4.512 6.437-10.882 11.472-18.491 10.052-15.192 24.984-35.478 44.525-55.821 38.816-40.411 97.6-82.829 173.69-82.829s134.873 42.417 173.69 82.829c19.539 20.344 34.472 40.63 44.525 55.821 5.034 7.61 8.87 13.979 11.471 18.491 1.301 2.257 2.296 4.051 2.976 5.308 0.341 0.63 0.603 1.125 0.787 1.474l0.305 0.58c0 0 0.013 0.027-14.227 7.322zM475.533 186.488l14.233 7.306c2.346-4.581 2.353-10.020 0.007-14.6l-14.24 7.294zM254.622 236.292c-24.913 0-44.56-19.714-44.56-43.362 0-23.65 19.647-43.362 44.56-43.362 24.911 0 44.559 19.712 44.559 43.362 0 23.648-19.648 43.362-44.559 43.362zM178.063 192.93c0 41.92 34.579 75.362 76.56 75.362s76.559-33.442 76.559-75.362c0-41.922-34.579-75.362-76.559-75.362s-76.559 33.44-76.559 75.362z" />
<glyph unicode="&#xe917;" glyph-name="angle-up" data-tags="angle-up" horiz-adv-x="326" d="M176.361 203.73c-3.927 3.125-8.959 5.015-14.432 5.015-5.565 0-10.674-1.953-14.679-5.212l0.042 0.034-86.109-69.679c-3.962-3.226-9.072-5.18-14.639-5.18-12.854 0-23.274 10.421-23.274 23.274 0 7.288 3.349 13.793 8.594 18.061l0.043 0.034 86.109 69.678c11.885 9.673 27.211 15.532 43.904 15.532 16.432 0 31.538-5.677 43.464-15.175l-0.142 0.109 88.46-69.981c5.542-4.297 9.075-10.956 9.075-18.44 0-12.853-10.42-23.272-23.272-23.272-5.576 0-10.694 1.961-14.702 5.231l-88.441 69.971z" />
<glyph unicode="&#xe918;" glyph-name="menu-grid" data-tags="menu-grid" d="M48 373.334c0-8.837 7.163-16 16-16h144c8.837 0 16 7.163 16 16s-7.163 16-16 16h-144c-8.837 0-16-7.163-16-16zM288 373.334c0 8.837 7.163 16 16 16h144c8.837 0 16-7.163 16-16v-145.067c0-8.837-7.163-16-16-16h-144c-8.837 0-16 7.163-16 16v145.066zM320 357.334v-113.067h112v113.067h-112zM48 300.8c0-8.837 7.163-16 16-16h144c8.837 0 16 7.163 16 16s-7.163 16-16 16h-144c-8.837 0-16-7.163-16-16zM48 228.267c0-8.837 7.163-16 16-16h144c8.837 0 16 7.163 16 16s-7.163 16-16 16h-144c-8.837 0-16-7.163-16-16zM48 155.733c0 8.837 7.163 16 16 16h144c8.837 0 16-7.163 16-16v-145.066c0-8.837-7.163-16-16-16h-144c-8.837 0-16 7.163-16 16v145.067zM80 139.733v-113.067h112v113.067h-112zM288 155.733c0 8.837 7.163 16 16 16h144c8.837 0 16-7.163 16-16v-145.066c0-8.837-7.163-16-16-16h-144c-8.837 0-16 7.163-16 16v145.067zM320 139.733v-113.067h112v113.067h-112z" />
<glyph unicode="&#xe919;" glyph-name="home" data-tags="home" d="M246.176 400.185l-175.999-136.889c-3.897-3.031-6.177-7.692-6.177-12.63v-215.111c0-14.618 5.807-28.635 16.142-38.969 10.335-10.336 24.353-16.143 38.969-16.143h78.107c0.038 0 0.077 0 0.115 0s0.077 0 0.115 0h117.102c0.038 0 0.077 0 0.115 0s0.077 0 0.115 0h78.108c14.615 0 28.634 5.807 38.969 16.143 10.334 10.334 16.141 24.352 16.141 38.969v215.111c0 4.938-2.281 9.599-6.176 12.63l-176 136.889c-5.779 4.493-13.869 4.493-19.648 0zM213.333 12.443v163.557h85.333v-163.557h-85.334zM330.666 12.443v179.557c0 8.837-7.163 16-16 16h-117.334c-8.837 0-16-7.163-16-16v-179.557h-62.222c-6.13 0-12.007 2.437-16.342 6.769-4.334 4.335-6.769 10.214-6.769 16.344v207.285l160 124.444 160-124.444v-207.285c0-6.129-2.434-12.009-6.769-16.344-4.335-4.333-10.212-6.769-16.341-6.769h-62.223z" />
<glyph unicode="&#xe91a;" glyph-name="menu-line" data-tags="menu-line" d="M42.666 384h426.666c11.782 0 21.334-9.552 21.334-21.334s-9.551-21.334-21.334-21.334h-426.666c-11.782 0-21.334 9.552-21.334 21.334s9.552 21.334 21.334 21.334zM42.666 213.333h426.666c11.782 0 21.334-9.552 21.334-21.333s-9.551-21.334-21.334-21.334h-426.666c-11.782 0-21.334 9.551-21.334 21.334s9.552 21.334 21.334 21.334zM42.666 42.666h426.666c11.782 0 21.334-9.551 21.334-21.334s-9.551-21.334-21.334-21.334h-426.666c-11.782 0-21.334 9.551-21.334 21.334s9.552 21.334 21.334 21.334z" />
<glyph unicode="&#xe91b;" glyph-name="notify" data-tags="notify" d="M256 375.561c32.896 0 64.443-13.070 87.704-36.334s36.329-54.817 36.329-87.717v-99.24c0-16.199 5.278-31.851 14.882-44.659h-277.829c9.605 12.808 14.883 28.461 14.883 44.659v99.24c0 32.9 13.067 64.454 36.328 87.717s54.808 36.334 87.704 36.334zM454.449 107.61c-11.842 0-23.198 4.706-31.574 13.079-8.373 8.375-13.077 19.736-13.077 31.579v99.24c0 40.797-16.202 79.923-45.048 108.77-28.842 28.848-67.962 45.054-108.751 45.054s-79.909-16.207-108.752-45.054c-28.843-28.847-45.047-67.974-45.047-108.77v-99.24c0-11.844-4.704-23.204-13.078-31.579-8.374-8.373-19.731-13.079-31.573-13.079-8.22 0-14.883-6.664-14.883-14.887s6.663-14.887 14.883-14.887h396.899c8.219 0 14.885 6.664 14.885 14.887s-6.664 14.887-14.885 14.887zM214.2 26.208c-7.11-4.126-9.53-13.235-5.405-20.348 4.798-8.271 11.684-15.136 19.968-19.909s17.677-7.286 27.238-7.286c9.562 0 18.954 2.513 27.238 7.286s15.17 11.637 19.968 19.909c4.123 7.113 1.704 16.222-5.406 20.348-7.111 4.123-16.218 1.704-20.344-5.408-2.18-3.759-5.31-6.88-9.075-9.050-3.767-2.17-8.036-3.311-12.382-3.311s-8.614 1.142-12.382 3.311c-3.766 2.17-6.895 5.291-9.075 9.050-4.126 7.113-13.233 9.531-20.344 5.408z" />
</font>
</defs>
</svg>
