<svg width="8" height="8" viewBox="0 0 8 8" fill="none" xmlns="http://www.w3.org/2000/svg">
<path fill-rule="evenodd" clip-rule="evenodd" d="M0.522898 0.522898C0.786502 0.259294 1.21389 0.259294 1.47749 0.522898L7.47749 6.5229C7.7411 6.7865 7.7411 7.21389 7.47749 7.47749C7.21389 7.7411 6.7865 7.7411 6.5229 7.47749L0.522898 1.47749C0.259294 1.21389 0.259294 0.786502 0.522898 0.522898Z" fill="black"/>
<path fill-rule="evenodd" clip-rule="evenodd" d="M7.47749 0.522898C7.7411 0.786502 7.7411 1.21389 7.47749 1.47749L1.47749 7.47749C1.21389 7.7411 0.786502 7.7411 0.522898 7.47749C0.259294 7.21389 0.259294 6.7865 0.522898 6.5229L6.5229 0.522898C6.7865 0.259294 7.21389 0.259294 7.47749 0.522898Z" fill="#010101"/>
</svg>
